<?xml version="1.0" encoding="iso-8859-1"?>
<!-- Generator: Adobe Illustrator 19.0.0, SVG Export Plug-In . SVG Version: 6.00 Build 0)  -->
<svg version="1.1" id="Layer_1" xmlns="http://www.w3.org/2000/svg" xmlns:xlink="http://www.w3.org/1999/xlink" x="0px" y="0px"
	 viewBox="0 0 512 512" style="enable-background:new 0 0 512 512;" xml:space="preserve">
<g>
	<g>
		<path d="M499.305,225.353L372.468,98.515c-8.186-8.185-19.069-12.693-30.646-12.693c-11.577,0-22.462,4.508-30.646,12.693
			c-8.179,8.177-12.683,19.06-12.683,30.647s4.504,22.47,12.682,30.647l52.851,52.851H43.339C19.443,212.659,0,232.102,0,255.999
			s19.443,43.341,43.339,43.341h320.687l-52.851,52.851c-16.896,16.897-16.897,44.393,0,61.293
			c8.187,8.186,19.07,12.694,30.647,12.694c11.575,0,22.459-4.508,30.645-12.694l126.836-126.836
			C507.491,278.463,512,267.58,512,255.999S507.491,233.535,499.305,225.353z M484.879,272.222L358.042,399.061
			c-4.334,4.334-10.093,6.72-16.221,6.72s-11.889-2.387-16.222-6.719c-8.945-8.947-8.945-23.501,0-32.446l70.263-70.263
			c2.916-2.917,3.789-7.304,2.21-11.115c-1.578-3.81-5.296-6.296-9.422-6.296H43.339c-12.649,0-22.941-10.291-22.941-22.942
			s10.292-22.943,22.941-22.943h345.312c4.126,0,7.844-2.486,9.422-6.296c1.579-3.811,0.706-8.198-2.21-11.115l-70.264-70.263
			c-4.324-4.324-6.706-10.086-6.706-16.222c0-6.136,2.382-11.897,6.706-16.222h0.001c4.333-4.333,10.093-6.719,16.222-6.719
			c6.128,0,11.889,2.387,16.222,6.719L484.881,239.78c4.333,4.332,6.719,10.092,6.719,16.221
			C491.601,262.129,489.214,267.89,484.879,272.222z"/>
	</g>
</g>
<g>
	<g>
		<path d="M403.972,172.762l-2.023-2.023c-3.985-3.982-10.441-3.982-14.425,0c-3.983,3.984-3.983,10.442,0,14.425l2.023,2.023
			c1.992,1.991,4.601,2.987,7.212,2.987c2.61,0,5.22-0.995,7.213-2.987C407.955,183.203,407.955,176.745,403.972,172.762z"/>
	</g>
</g>
<g>
	<g>
		<path d="M476.994,245.784l-53.276-53.275c-3.985-3.982-10.441-3.982-14.425,0c-3.983,3.984-3.983,10.442,0,14.425l53.276,53.275
			c1.992,1.991,4.601,2.987,7.212,2.987c2.611,0,5.221-0.995,7.213-2.987C480.977,256.225,480.977,249.767,476.994,245.784z"/>
	</g>
</g>
<g>
</g>
<g>
</g>
<g>
</g>
<g>
</g>
<g>
</g>
<g>
</g>
<g>
</g>
<g>
</g>
<g>
</g>
<g>
</g>
<g>
</g>
<g>
</g>
<g>
</g>
<g>
</g>
<g>
</g>
</svg>
